<svg xmlns="http://www.w3.org/2000/svg" width="70" height="70" viewBox="0 0 56 57" fill="none">
  <path d="M20.3422 56.3781C19.3799 56.268 18.4161 56.174 17.4568 56.0448C14.0155 55.5809 10.7435 54.6442 7.82367 52.7164C5.25163 51.0178 3.41553 48.7215 2.18196 45.9584C0.470267 42.1235 -0.0843117 38.0743 0.0101165 33.9252C0.0415926 32.5525 0.160002 31.1797 0.269419 29.8085C0.34736 28.8233 0.554203 28.5855 1.55094 28.4754C7.02029 27.8734 12.4057 28.0819 17.5962 30.13C22.2892 31.9828 25.3753 35.32 27.0735 39.9506C27.2999 40.5658 27.4917 41.1927 27.7525 41.9723C27.8574 41.642 27.9204 41.4482 27.9803 41.2529C29.061 37.7293 30.8312 34.6402 33.8649 32.369C36.3335 30.522 39.1633 29.4678 42.1745 28.8453C45.6984 28.1171 49.2552 28.0349 52.8299 28.3506C53.2766 28.3902 53.7203 28.4607 54.1654 28.5003C54.7845 28.5546 55.1127 28.8938 55.1802 29.4811C55.2746 30.3003 55.393 31.121 55.435 31.9432C55.6178 35.4756 55.4724 38.986 54.5506 42.4289C53.4939 46.3754 51.6488 49.8491 48.215 52.3318C45.9052 54.0026 43.3122 55.0567 40.5108 55.5882C38.901 55.8936 37.2628 56.0521 35.638 56.2782C35.4731 56.3017 35.3128 56.3428 35.1494 56.3751H31.11C30.5404 56.312 29.9633 56.287 29.4028 56.1799C27.709 55.8583 26.0483 56.2078 24.3786 56.3751H20.3392L20.3422 56.3781ZM20.9552 47.4442C21.0002 47.3209 21.0316 47.2739 21.0316 47.2284C21.0346 43.0265 21.0376 38.8245 21.0316 34.6241C21.0316 34.4934 20.9852 34.3143 20.8922 34.2379C19.7996 33.3409 18.6035 32.6127 17.211 32.0445V32.6905C17.211 35.7913 17.277 38.8935 17.1796 41.9914C17.1391 43.2702 17.4464 44.2128 18.4671 45.0305C19.3544 45.7411 20.1068 46.6118 20.9552 47.4457V47.4442ZM34.4569 47.3605C34.5034 47.3723 34.5483 47.384 34.5948 47.3943C35.7025 46.3034 36.8041 45.2052 37.9253 44.1261C38.1861 43.8751 38.294 43.624 38.2925 43.2643C38.2805 39.7054 38.285 36.1451 38.285 32.5862V32.0445C37.023 32.5584 35.9378 33.2161 34.9066 33.9766C34.5723 34.2233 34.4479 34.4773 34.4494 34.8898C34.4659 38.8715 34.4599 42.8532 34.4599 46.8349V47.3605H34.4569ZM19.6602 48.8625C19.4548 48.6422 19.3394 48.5086 19.215 48.3853C18.2258 47.4119 17.223 46.4503 16.2488 45.4622C15.976 45.1862 15.6972 45.0907 15.315 45.0922C11.7282 45.1039 8.13993 45.0995 4.55316 45.0995H3.92514C4.45574 46.346 5.12722 47.4104 5.90513 48.4191C6.15244 48.7406 6.41325 48.8757 6.83742 48.8742C10.8918 48.8566 14.9463 48.8639 19.0007 48.8639H19.6617L19.6602 48.8625ZM51.5529 45.148C51.4135 45.1245 51.3416 45.1025 51.2681 45.1025C47.494 45.0995 43.7199 45.0951 39.9457 45.1113C39.7374 45.1113 39.4871 45.2522 39.3297 45.402C38.4304 46.2565 37.5566 47.1374 36.6662 47.9992C36.4084 48.2488 36.1192 48.4661 35.7534 48.7729C36.0112 48.836 36.0607 48.8581 36.1117 48.8581C40.3714 48.8595 44.6312 48.8625 48.8909 48.8522C49.0543 48.8522 49.2702 48.7729 49.3706 48.6555C50.2624 47.6145 50.9818 46.4649 51.5544 45.148H51.5529ZM26.6598 53.0365C26.6898 52.6416 26.7318 52.389 26.7243 52.138C26.6554 50.0502 26.6883 47.9522 26.4755 45.8777C26.1742 42.9384 25.3648 40.1195 23.7925 37.559C23.5707 37.1978 23.3159 36.8572 23.0416 36.4564C22.9831 36.5958 22.9577 36.6281 22.9577 36.659C22.9547 40.8051 22.9517 44.9527 22.9577 49.0989C22.9577 49.2486 23.0101 49.4409 23.112 49.5422C24.2497 50.6801 25.4008 51.8032 26.6598 53.038V53.0365ZM28.9276 52.9484C29.9948 51.9001 31.053 50.8416 32.1352 49.8094C32.4245 49.5334 32.5534 49.2589 32.5519 48.8537C32.5354 44.9278 32.5429 41.0004 32.5429 37.0745V36.5518C32.4829 36.5445 32.423 36.5371 32.3645 36.5298C28.9441 41.5128 28.5679 47.1374 28.9291 52.9499L28.9276 52.9484ZM8.47867 50.7696C11.1377 53.3301 20.8428 55.3709 25.2464 54.2962C24.1403 53.2142 23.0731 52.1424 21.9684 51.1088C21.7556 50.9091 21.3974 50.7579 21.1066 50.7564C17.0881 50.7329 13.0697 50.7403 9.05124 50.7417C8.87437 50.7417 8.69751 50.7579 8.48017 50.7682L8.47867 50.7696ZM30.2646 54.2698C30.2916 54.3153 30.3186 54.3593 30.344 54.4048C31.9298 54.4048 33.5186 54.4592 35.1014 54.3931C38.0647 54.2712 40.9605 53.7706 43.7184 52.6474C44.883 52.1732 45.9951 51.608 47.1373 50.7417H46.3729C42.8415 50.7417 39.3072 50.8107 35.7789 50.708C34.3895 50.6669 33.3717 51.006 32.4964 52.0646C31.8339 52.8662 31.0125 53.5401 30.2631 54.2712L30.2646 54.2698ZM11.4764 30.4133C11.4764 32.4864 11.5633 34.4347 11.4464 36.3697C11.3685 37.6559 11.7222 38.5896 12.7384 39.4059C13.6243 40.118 14.3797 40.9842 15.267 41.8549V31.2634C14.0305 30.9859 12.7984 30.7099 11.4764 30.4148V30.4133ZM40.235 31.259V41.8534C41.4416 40.6671 42.5837 39.563 43.6929 38.4311C43.8728 38.2475 43.9972 37.9319 44.0017 37.6735C44.0301 36.0776 44.0151 34.4817 44.0151 32.8858V30.4178C42.7036 30.7099 41.4611 30.9859 40.2335 31.259H40.235ZM2.24642 39.45C2.5327 40.6304 2.80699 41.6919 3.03931 42.7637C3.11875 43.1322 3.29712 43.2217 3.65235 43.2203C6.88539 43.21 10.1199 43.2144 13.353 43.2115C13.5029 43.2115 13.6527 43.1821 13.909 43.1542C12.6515 41.9283 11.4929 40.7831 10.3088 39.6629C10.1604 39.5219 9.87861 39.4603 9.65828 39.4588C7.88213 39.4426 6.10748 39.45 4.33133 39.45C3.68082 39.45 3.03032 39.45 2.24642 39.45ZM53.2286 39.5381C53.0848 39.4896 53.0338 39.4573 52.9828 39.4573C50.5337 39.4529 48.0846 39.4485 45.6354 39.4573C45.4885 39.4573 45.3057 39.5381 45.1992 39.6423C44.0421 40.764 42.897 41.8974 41.7504 43.0294C41.7204 43.0588 41.7249 43.1219 41.7039 43.2129C42.4219 43.2129 43.1113 43.2129 43.8008 43.2129C46.4748 43.2129 49.1487 43.2188 51.8212 43.2012C52.0161 43.2012 52.3458 43.0676 52.3818 42.9354C52.6935 41.8108 52.9528 40.6715 53.2271 39.5381H53.2286ZM3.54293 30.1667C5.5559 32.1443 7.54938 34.1043 9.53387 36.0556V30.1667H3.54293ZM45.9487 36.0233C47.9287 34.0809 49.9252 32.1223 51.9111 30.174H45.9487V36.0233ZM2.02159 31.6231V37.5179H8.01553C6.03553 35.5696 4.05854 33.6257 2.02159 31.6231ZM47.4775 37.5281H53.4804V31.6231C51.442 33.6287 49.465 35.5725 47.4775 37.5281Z" fill="#D2B48C"/>
  <path d="M28.8692 0C29.7295 0.152691 30.6094 0.237845 31.4472 0.469817C37.5071 2.14207 41.3547 6.00044 42.7247 12.0126C44.5023 19.8204 39.4122 27.6267 31.4352 29.6073C23.1795 31.6569 14.8264 26.6988 12.8644 18.3831C11.5634 12.8686 13.1447 8.03681 17.298 4.09181C19.7951 1.7163 22.8408 0.422835 26.3046 0.0807498C26.4126 0.0704725 26.5175 0.0278954 26.6254 0C27.3733 0 28.1213 0 28.8692 0ZM21.0347 3.75119C21.3074 3.75119 21.4828 3.75119 21.6597 3.75119C23.0057 3.75119 24.3516 3.73798 25.6976 3.7556C27.2669 3.77615 28.4795 4.77451 28.6534 6.16047C28.8707 7.90467 27.6701 9.3288 25.8745 9.36844C24.0054 9.41102 22.1348 9.37285 20.2657 9.389C19.5598 9.39487 19.1221 9.79715 19.1401 10.3551C19.1566 10.8998 19.5748 11.2404 20.2582 11.2609C20.9867 11.2844 21.7211 11.2506 22.4406 11.3343C24.0953 11.5281 25.206 13.2004 24.7743 14.7801C24.4056 16.1353 23.3099 16.9031 21.6942 16.909C19.5058 16.9178 17.319 16.9119 15.1306 16.9119C14.9343 16.9119 14.7364 16.9119 14.5026 16.9119C14.9688 19.7852 16.1828 22.19 18.1883 24.2059C18.3127 24.3306 18.5391 24.4202 18.7189 24.4202C22.2907 24.432 25.861 24.4319 29.4328 24.4261C30.1582 24.4261 30.5869 24.0708 30.6019 23.507C30.6169 22.9168 30.1822 22.5688 29.4238 22.5512C28.7148 22.5351 27.9969 22.5732 27.2984 22.4793C25.5537 22.2444 24.4895 20.5163 25.0276 18.8705C25.4428 17.5991 26.4875 16.9163 28.0613 16.9134C32.1367 16.9075 36.2136 16.9119 40.289 16.9119C40.5078 16.9119 40.7282 16.9119 41.0115 16.9119C41.0549 16.263 41.0954 15.6728 41.1389 15.0268C40.358 15.0268 39.6685 15.0371 38.9805 15.0253C37.4382 14.9989 36.6018 14.2795 36.3785 12.782C36.3185 12.3841 36.1207 12.2006 35.7085 12.2123C35.2603 12.2241 34.8092 12.2329 34.3625 12.205C32.4859 12.0875 31.2419 10.474 31.6691 8.72538C31.9613 7.52882 33.0135 6.64497 34.2816 6.60533C35.4672 6.56863 36.6558 6.59799 37.9028 6.59799C34.1677 1.84697 26.4186 0.347958 21.0347 3.75119ZM40.5198 18.8441C40.4299 18.825 40.3759 18.8015 40.322 18.8015C36.1701 18.7986 32.0198 18.7971 27.868 18.803C27.6701 18.803 27.4528 18.8485 27.2789 18.938C26.8862 19.1421 26.7528 19.493 26.8352 19.9158C26.9372 20.4356 27.3224 20.6411 27.805 20.6646C28.514 20.6984 29.2274 20.6587 29.9349 20.7042C31.4817 20.8041 32.6748 22.2414 32.4964 23.7463C32.3106 25.3085 31.1475 26.2995 29.4583 26.3068C26.8592 26.3171 24.2602 26.3097 21.6612 26.3097C21.4828 26.3097 21.306 26.3097 21.0377 26.3097C27.877 30.5704 37.9703 27.2758 40.5183 18.8441H40.5198ZM14.3827 15.0224C16.9623 15.0224 19.4654 15.0341 21.9684 15.0136C22.5815 15.0092 22.9367 14.6201 22.9367 14.0901C22.9367 13.5645 22.5845 13.1975 21.9669 13.1607C21.2595 13.1196 20.546 13.1607 19.8386 13.1108C18.3922 13.011 17.292 11.8643 17.2216 10.4285C17.1541 9.066 18.1973 7.80337 19.5913 7.57873C19.903 7.52882 20.2223 7.50826 20.5385 7.50826C22.2772 7.50092 24.0144 7.5112 25.7531 7.49945C26.3691 7.49505 26.7408 7.14709 26.7633 6.61855C26.7873 6.09588 26.4306 5.71562 25.84 5.63927C25.7486 5.62753 25.6541 5.62899 25.5597 5.62899C23.2979 5.62899 21.0362 5.62019 18.7759 5.64221C18.5525 5.64368 18.2768 5.77728 18.1164 5.93731C17.0132 7.0267 16.1484 8.28493 15.5174 9.68997C14.7649 11.3652 14.3452 13.1123 14.3827 15.0224ZM40.944 13.1299C40.8136 11.7733 40.1841 9.86616 39.4721 8.7386C39.3867 8.60352 39.1619 8.47873 38.9985 8.47579C37.5056 8.45671 36.0113 8.45671 34.5169 8.47139C33.9204 8.47726 33.5217 8.84724 33.4962 9.3567C33.4692 9.87643 33.8784 10.2905 34.4929 10.3345C34.8092 10.358 35.1269 10.3418 35.4447 10.3418C37.1984 10.3433 37.9448 10.9599 38.294 12.641C38.3315 12.8245 38.5608 13.0976 38.7167 13.1079C39.4541 13.1578 40.1976 13.1299 40.9425 13.1299H40.944Z" fill="#2BAE7A"/>
  <path d="M6.64556 13.1887V14.9887H4.79297V13.1887H6.64556Z" fill="#2BAE7A"/>
  <path d="M10.4617 14.9914H8.62109V13.1855H10.4617V14.9914Z" fill="#2BAE7A"/>
  <path d="M45.0104 14.9914V13.1855H46.848V14.9914H45.0104Z" fill="#2BAE7A"/>
  <path d="M50.6971 13.187V14.9914H48.8415V13.187H50.6971Z" fill="#2BAE7A"/>
  <path d="M4.79599 22.513V20.7189H6.64408V22.513H4.79599Z" fill="#2BAE7A"/>
  <path d="M48.834 22.5058V20.7249H50.6896V22.5058H48.834Z" fill="#2BAE7A"/>
  <path d="M6.6456 24.4673V26.2658H4.802V24.4673H6.6456Z" fill="#2BAE7A"/>
  <path d="M48.8445 26.2731V24.4761H50.6866V26.2731H48.8445Z" fill="#2BAE7A"/>
  <path d="M4.79297 18.7618V16.9501H6.63207V18.7618H4.79297Z" fill="#2BAE7A"/>
  <path d="M50.7045 16.9442V18.7457H48.8549V16.9442H50.7045Z" fill="#2BAE7A"/>
</svg>