<svg xmlns="http://www.w3.org/2000/svg" width="70" height="70" viewBox="0 0 70 70" fill="none">
  <g clip-path="url(#clip0_0_62)">
    <path d="M0.676636 34.597C0.867483 33.4872 0.949947 32.3407 1.27038 31.2726C1.94895 29.004 2.72647 26.7648 3.51342 24.533C4.31451 22.2546 5.1745 20.0007 6.01092 17.7346C6.08868 17.5239 6.17585 17.3181 6.27717 17.0658C7.01699 17.3598 7.71677 17.6366 8.47544 17.9379C8.38826 18.2074 8.32229 18.4426 8.23983 18.6705C6.8662 22.453 5.44074 26.2136 4.13073 30.0182C2.55683 34.5897 2.79009 39.1464 4.51242 43.637C4.61845 43.9139 4.72212 44.1931 4.84935 44.5337C4.1213 44.8497 3.41446 45.1584 2.65579 45.4891C1.84999 43.5439 1.23268 41.6061 0.947591 39.5629C0.858058 38.9284 0.766169 38.2914 0.676636 37.6545C0.676636 36.6353 0.676636 35.6162 0.676636 34.597Z" fill="#D2B48C"/>
    <path d="M69.1058 63.7847H66.7426V52.5276H69.1058V63.7847Z" fill="#D2B48C"/>
    <path d="M69.1059 68.7873H66.7003C66.7003 68.3439 66.7003 67.9397 66.7003 67.533C66.7003 67.1263 66.7003 66.7588 66.7003 66.2836H69.1059V68.7849V68.7873Z" fill="#D2B48C"/>
    <path d="M27.0253 50.5408V53.706C28.0596 54.1445 28.2104 54.3773 28.2104 55.5287C28.2104 58.5396 28.2104 61.5505 28.2104 64.5613C28.2104 65.6834 28.0431 65.9357 27.0041 66.3473V70.0025H24.622V66.3252H12.6058V69.9902H10.1907V66.3277C9.09747 66.1244 8.94197 65.3355 8.95139 64.3629C8.98202 61.4696 8.96317 58.5739 8.96317 55.6781C8.96317 54.2254 9.187 53.9461 10.5936 53.7084C10.2426 52.824 9.89384 51.9543 9.54985 51.0797C8.59561 48.6642 7.58954 46.2682 6.70128 43.8257C4.80224 38.5952 4.95067 33.3623 6.85207 28.1613C9.11161 21.9827 11.3806 15.8066 13.6495 9.63047C14.665 6.86212 16.762 5.76703 19.5022 6.51914C19.7331 6.58284 20.0912 6.4432 20.2891 6.27171C22.1976 4.61315 24.2663 3.23632 26.5517 2.20983C31.7117 -0.112642 37.0271 -0.602615 42.4886 0.732562C46.3433 1.67576 49.7903 3.49111 52.8038 6.16636C53.2161 6.53139 53.5554 6.62449 54.0973 6.453C56.1471 5.79888 58.3949 6.77883 59.236 8.82692C60.3622 11.5659 61.34 14.3734 62.3602 17.1589C63.8328 21.1767 65.3478 25.1798 66.7309 29.2294C68.5215 34.4746 68.227 39.6879 66.2031 44.813C65.0392 47.7626 63.8564 50.7025 62.6548 53.7158C62.8409 53.7427 62.9799 53.7623 63.1189 53.7819C63.8705 53.8971 64.2805 54.3283 64.2829 55.1343C64.297 58.3999 64.2923 61.6656 64.2852 64.9313C64.2852 65.7275 63.8258 66.1464 63.0907 66.3203V69.9854H60.7133V66.3424H48.6758V69.9976H46.2914V66.3277C45.2099 66.1244 45.0285 65.3723 45.0379 64.4144C45.0662 61.4745 45.0662 58.5322 45.0379 55.5899C45.0285 54.6492 45.2453 53.9412 46.2349 53.7427V50.5481C39.838 53.1474 33.4575 53.1646 27.0229 50.5408H27.0253ZM18.7883 20.5887C22.141 20.988 23.3992 22.4629 23.3992 25.8804C23.3992 28.59 23.4204 31.2995 23.3898 34.0091C23.3756 35.3565 23.6065 36.6206 24.1673 37.8382C25.5221 40.7805 26.4198 43.8673 26.7614 47.1183C26.8062 47.5372 26.957 47.7994 27.3764 47.9831C33.5612 50.7147 39.7343 50.7123 45.9121 47.966C46.2914 47.7969 46.454 47.5642 46.4964 47.1551C46.838 43.8575 47.7593 40.7315 49.1329 37.7451C49.663 36.5937 49.8798 35.3932 49.868 34.1169C49.8421 31.1525 49.8539 28.1882 49.8633 25.2239C49.868 23.313 50.655 21.8577 52.3396 21.0542C52.964 20.7578 53.6897 20.6965 54.4201 20.5152C54.3565 20.3388 54.2881 20.1257 54.2057 19.9199C53.2679 17.6195 52.3184 15.3264 51.3995 13.0211C51.1804 12.4723 50.9283 11.8721 50.9448 11.3037C50.9707 10.2944 51.1922 9.28994 51.3477 8.1728C42.0834 -0.291482 28.6581 1.49447 21.7334 8.41779C22.4308 9.66477 22.5934 10.9803 22.1198 12.3474C21.8795 13.0431 21.585 13.7193 21.3093 14.4004C20.48 16.4411 19.6482 18.4794 18.7883 20.5912V20.5887ZM48.7112 53.7378C48.8078 53.7501 48.8926 53.7721 48.9751 53.7721C52.5163 53.7721 56.0576 53.7648 59.5989 53.7868C60.0135 53.7868 60.1243 53.5615 60.2468 53.2479C61.5215 50.0434 62.8197 46.8488 64.0708 43.6346C65.7696 39.2689 66.09 34.7881 64.5467 30.3416C62.2142 23.6241 59.7096 16.9703 57.2686 10.2944C56.788 8.97636 55.6288 8.42759 54.4931 8.92736C53.3857 9.41243 53.0135 10.5737 53.553 11.9039C54.8772 15.1623 56.1966 18.423 57.5372 21.674C58.0462 22.9063 58.2889 24.1778 58.2841 25.5178C58.2724 30.0795 58.2794 34.6436 58.2794 39.2052V39.9769H55.8738C55.8738 39.6854 55.8738 39.4355 55.8738 39.1832C55.8738 34.575 55.8691 29.9644 55.8785 25.3562C55.8785 24.6187 55.7183 23.9671 55.1246 23.5237C54.5614 23.1023 53.9253 23.0263 53.2915 23.3448C52.5776 23.7049 52.2666 24.337 52.2666 25.1479C52.2666 28.1808 52.2524 31.2162 52.2713 34.2492C52.2807 35.8048 52.0215 37.287 51.3524 38.6834C49.0929 43.4117 48.3931 48.4412 48.7088 53.7378H48.7112ZM24.6032 53.7746C24.6032 52.8534 24.5938 52.0425 24.6032 51.2316C24.6574 46.9493 23.8374 42.8604 22.0397 39.0019C21.2952 37.4046 20.9606 35.7436 20.9818 33.9699C21.0195 31.0741 20.9983 28.1784 20.9889 25.2827C20.9842 23.9303 20.1242 23.0606 18.9555 23.1954C17.9872 23.3056 17.3887 24.1092 17.3864 25.3366C17.3816 29.9692 17.3864 34.6019 17.3864 39.2346C17.3864 39.4796 17.3864 39.7246 17.3864 39.9598H14.9807C14.9807 39.6511 14.9807 39.3963 14.9807 39.144C14.9807 34.7195 14.9972 30.2951 14.9713 25.8706C14.9619 24.2905 15.2446 22.8083 15.8525 21.3555C17.1884 18.1781 18.4655 14.9736 19.7708 11.7815C20.0912 10.9975 20.0912 10.2429 19.5658 9.55698C19.0851 8.92736 18.4325 8.65788 17.6714 8.77302C16.762 8.91266 16.2507 9.53738 15.935 10.4022C13.6472 16.6714 11.3452 22.9332 9.05506 29.2024C7.38456 33.7788 7.26911 38.3894 8.96553 42.9682C10.2614 46.4617 11.7057 49.8965 13.0581 53.3679C13.2183 53.7746 13.4634 53.777 13.7862 53.7746C17.1931 53.7697 20.6025 53.7721 24.0094 53.7721C24.1814 53.7721 24.3534 53.7721 24.5985 53.7721L24.6032 53.7746ZM25.7577 63.7504V56.3322H11.4065V63.7504H25.7577ZM61.8584 56.3274H47.5095V63.7431H61.8584V56.3274Z" fill="#D2B48C"/>
    <path d="M7.62487 13.3101C8.37648 13.6065 9.07389 13.8833 9.85849 14.192C9.62758 14.8339 9.40846 15.4439 9.16343 16.1225C8.41182 15.8261 7.69791 15.5419 6.91803 15.2357C7.15836 14.5815 7.38219 13.9691 7.62487 13.3101Z" fill="#D2B48C"/>
    <path d="M25.7577 63.7503H11.4065V56.3322H25.7577V63.7503Z" fill="#2BAE7A"/>
    <path d="M61.8584 56.3273V63.743H47.5095V56.3273H61.8584Z" fill="#2BAE7A"/>
    <path d="M36.3697 36.4294V39.9009C35.6157 39.9695 34.8759 40.0357 34.0112 40.114C33.9829 39.2786 33.8722 38.4751 33.95 37.6936C34.0678 36.5152 33.7945 35.8586 32.614 35.3393C30.1707 34.2613 29.0775 31.9903 28.6251 29.3959C27.6591 23.8494 30.2815 19.3661 34.5555 16.8256C38.3371 14.5791 42.3684 14.6109 46.4516 15.8285C47.3917 16.1078 47.7263 16.9261 47.2056 17.7713C46.1265 19.5229 45.9026 21.4632 45.8107 23.4721C45.7188 25.4785 45.7024 27.5168 45.323 29.4718C44.4536 33.9673 41.3152 36.6548 36.782 36.427C36.6736 36.4221 36.5629 36.427 36.3697 36.427V36.4294ZM44.4512 17.8178C43.7845 17.7223 43.2166 17.6096 42.6441 17.5606C39.5081 17.2887 36.6289 17.9526 34.1714 20.1182C31.1674 22.7666 30.1024 26.4364 31.3087 30.1553C31.7752 31.5959 32.574 32.7694 34.1078 33.323C34.5296 29.3861 35.432 25.6427 36.9823 22.0193C37.7221 22.3599 38.4219 22.6808 39.1594 23.0213C37.7245 26.5344 36.8032 30.1039 36.4922 33.8742C37.8682 34.0041 39.1429 33.8669 40.3186 33.1344C42.1658 31.9854 42.9245 30.1431 43.1577 28.0534C43.3297 26.5197 43.3368 24.9616 43.3721 23.4133C43.4169 21.5245 43.7633 19.7018 44.4465 17.8178H44.4512Z" fill="#2BAE7A"/>
    <path d="M45.5704 7.13403C45.2217 7.87879 44.8942 8.5819 44.5219 9.37566C40.1395 7.27122 35.637 6.93069 30.9977 8.41286C30.7857 7.74894 30.5948 7.16343 30.4111 6.57546C30.3639 6.42602 30.3404 6.26923 30.2932 6.04629C35.5356 4.35098 40.5943 4.73071 45.5728 7.13158L45.5704 7.13403Z" fill="#D2B48C"/>
    <path d="M26.4716 10.7231C26.0122 10.0224 25.588 9.37564 25.1168 8.65538C25.965 8.14091 26.7779 7.64603 27.6685 7.10461C28.0384 7.89347 28.3754 8.60883 28.7241 9.35114C27.9725 9.80926 27.2515 10.2478 26.4716 10.7231Z" fill="#D2B48C"/>
  </g>
  <defs>
    <clipPath id="clip0_0_62">
      <rect width="68.4292" height="70" fill="white" transform="translate(0.676636)"/>
    </clipPath>
  </defs>
</svg>