<svg xmlns="http://www.w3.org/2000/svg" width="68" height="70" viewBox="0 0 68 70" fill="none">
  <g clip-path="url(#clip0_0_73)">
    <path d="M0.389221 60.9692V27.6147C0.780893 26.9627 1.36577 26.8093 2.07183 26.8129C7.60265 26.8294 13.1317 26.8221 18.6625 26.8221C18.919 26.8221 19.1754 26.8221 19.4951 26.8221V26.013C19.4951 23.7138 19.5074 21.4127 19.4863 19.1135C19.481 18.4743 19.676 17.9812 20.1151 17.5374C21.2778 16.3613 22.4335 15.1761 23.5505 13.9543C23.7876 13.6932 23.9545 13.2585 23.965 12.8988C24.0107 11.3976 23.9598 9.89277 23.9949 8.38977C24.0089 7.75789 23.8719 7.28489 23.3977 6.83929C22.6671 6.1508 22.6987 5.53718 23.4118 4.79024C24.6623 3.479 25.9199 2.17506 27.1862 0.880251C27.4971 0.560658 27.8501 0.290373 28.1838 0C41.4006 0 54.6173 0 67.834 0V14.3543C67.4722 14.9898 66.9347 15.1816 66.2339 15.1798C59.7178 15.1615 53.1999 15.1688 46.6837 15.1688H45.99L45.8951 15.3386C46.6486 16.0892 47.4478 16.796 48.1327 17.6068C48.4471 17.9812 48.6755 18.5492 48.7036 19.0459C48.7808 20.4083 48.7299 21.7762 48.7299 23.144C48.7299 24.3457 48.7299 25.5455 48.7299 26.8202H49.5642C55.0933 26.8202 60.6241 26.8276 66.1532 26.8111C66.8592 26.8093 67.4441 26.9627 67.8358 27.6128V60.9674C67.6039 61.2669 67.3967 61.592 67.1367 61.8622C64.7533 64.3478 62.3559 66.8187 59.976 69.3115C59.5299 69.779 59.0486 69.9982 58.404 69.9982C42.2085 69.9872 26.0147 69.9872 9.8192 69.9982C9.17636 69.9982 8.69512 69.779 8.24724 69.3115C5.90072 66.8516 3.53313 64.4135 1.18135 61.959C0.891544 61.6559 0.652677 61.2998 0.389221 60.9674L0.389221 60.9692ZM2.67075 29.1925C2.6567 29.3825 2.63562 29.5359 2.63387 29.6893C2.63387 39.6916 2.6286 49.6921 2.64792 59.6945C2.64792 59.9867 2.82356 60.3465 3.0273 60.562C5.15251 62.8009 7.29353 65.0271 9.45563 67.2278C9.68747 67.4633 10.0897 67.6441 10.4129 67.6441C26.2202 67.6642 42.0258 67.6642 57.8332 67.6441C58.1388 67.6441 58.5182 67.4798 58.7377 67.257C60.8998 65.0545 63.0444 62.832 65.1626 60.5857C65.4014 60.3319 65.5718 59.8863 65.5735 59.5301C65.5946 49.6648 65.5911 39.7994 65.5911 29.9358C65.5911 29.6948 65.5911 29.4537 65.5911 29.1907H2.67075V29.1925ZM65.57 2.37595H48.7686V12.7892H65.57V2.37595ZM46.4326 12.8221V2.32846H45.593C40.3942 2.32846 35.1971 2.34307 29.9982 2.31203C29.2623 2.30655 28.7283 2.48917 28.2242 3.06444C27.3917 4.01409 26.4731 4.88338 25.6441 5.73076C27.0404 7.17532 28.3542 8.53587 29.6574 9.88364C30.1861 9.34307 30.7605 8.75867 31.4507 8.05557C30.9361 7.57344 30.3653 7.15888 29.9595 6.61101C29.7382 6.31151 29.6592 5.73624 29.7751 5.37647C29.8717 5.07514 30.3424 4.73728 30.6568 4.7245C31.0116 4.71171 31.4507 4.96739 31.7282 5.24315C32.9348 6.43569 34.0835 7.69215 35.2884 8.88651C35.5255 9.1221 35.9189 9.29924 36.2439 9.30472C38.4147 9.34125 40.5856 9.31751 42.7582 9.32664C43.8173 9.33029 44.2248 9.76494 44.2354 10.8643C44.2424 11.5127 44.2354 12.161 44.2354 12.8239H46.4273L46.4326 12.8221ZM26.2694 19.8531V26.7764H41.945V19.8531H26.2694ZM23.9352 26.7892V16.7741C23.2344 17.5411 22.6425 18.1456 22.1068 18.7994C21.9153 19.0313 21.759 19.3801 21.7555 19.6796C21.7239 21.6374 21.7397 23.5951 21.7397 25.5528C21.7397 25.9546 21.7397 26.3582 21.7397 26.7892H23.9369H23.9352ZM46.4853 26.7892C46.4853 24.2799 46.4853 21.8474 46.4818 19.4148C46.4818 19.3071 46.466 19.1665 46.401 19.0989C45.7265 18.3775 45.0415 17.6671 44.2793 16.8727V26.791H46.4835L46.4853 26.7892ZM28.4807 17.4607C28.4807 15.7422 28.4807 14.0639 28.4772 12.3874C28.4772 12.2797 28.4614 12.1391 28.3964 12.0697C27.7237 11.3501 27.0387 10.6415 26.2694 9.83799V17.4607H28.4807ZM30.7341 17.448H32.9278V9.79598C32.1585 10.6288 31.5227 11.3081 30.9027 12.0039C30.8096 12.108 30.7429 12.2833 30.7429 12.4258C30.7323 14.0804 30.7359 15.7368 30.7359 17.448H30.7341ZM35.2427 17.4644H37.4487V11.6588C36.8024 11.6588 36.1947 11.6387 35.5905 11.6752C35.4675 11.6825 35.2585 11.9071 35.2568 12.0331C35.2339 13.8247 35.241 15.6181 35.241 17.4626L35.2427 17.4644ZM39.7865 11.7026V17.4425H41.9538V11.7026H39.7865Z" fill="#D2B48C"/>
    <path d="M44.887 40.5628C45.1838 40.3491 45.4192 40.1866 45.6457 40.0131C46.0831 39.6752 46.5415 39.5255 47.0473 39.8414C47.5549 40.161 47.6322 40.6596 47.5496 41.2129C47.4443 41.9105 47.3635 42.6136 47.2071 43.2985C47.0754 43.8774 47.1966 44.334 47.511 44.8252C48.9284 47.0441 50.3124 49.2867 51.707 51.5239C52.2181 52.3439 52.2093 52.7 51.656 53.5054C49.9488 55.9891 48.2294 58.4636 46.5397 60.9601C46.1182 61.5829 45.6124 61.8404 44.8799 61.8294C42.6862 61.7984 40.4908 61.8184 38.2953 61.8184C38.0582 61.8184 37.8211 61.8184 37.4856 61.8184C37.4856 62.2403 37.5699 62.6256 37.4645 62.9434C37.331 63.3415 37.115 63.7926 36.7989 64.0209C36.3967 64.3113 35.9119 64.1359 35.5378 63.7798C35.4412 63.6867 35.3305 63.6027 35.2585 63.4913C34.2943 62.0175 32.9542 61.6943 31.2944 61.7801C28.6458 61.9171 25.9849 61.7983 23.3292 61.8276C22.5916 61.8367 22.0963 61.5609 21.6782 60.9418C20.0009 58.4636 18.2937 56.0092 16.5988 53.5437C16.0016 52.6744 15.9999 52.3731 16.5725 51.4508C18.1181 48.9653 19.6654 46.4798 21.2532 43.9267C20.9019 43.6546 20.5647 43.3807 20.2134 43.1286C19.7515 42.7963 19.409 42.3945 19.5372 41.7681C19.6707 41.1106 20.159 40.8805 20.7403 40.7856C21.2813 40.6979 21.8205 40.5299 22.3615 40.5189C23.2309 40.5007 23.7104 40.0441 24.1512 39.3081C25.551 36.9687 27.0352 34.6841 28.4561 32.3574C28.8407 31.7274 29.3255 31.4735 30.0333 31.479C32.7539 31.5009 35.4763 31.5028 38.1987 31.479C38.9399 31.4717 39.4141 31.7657 39.8093 32.4159C41.3321 34.9178 42.8952 37.3924 44.4444 39.8761C44.5743 40.0843 44.7113 40.2888 44.8905 40.5646L44.887 40.5628ZM37.4768 54.8221C38.4938 54.8221 39.4334 54.6943 40.3274 54.8495C42.0399 55.149 43.0814 54.4258 43.7787 52.8753C43.9333 52.532 43.9473 52.3329 43.7576 52.0298C43.1253 51.018 42.5001 50.0008 41.9152 48.958C41.6588 48.4996 41.3496 48.2787 40.8368 48.2257C40.0745 48.1472 39.321 47.9755 38.5658 47.8385C38.0512 47.7454 37.6542 47.4897 37.5365 46.9272C37.4224 46.3775 37.6261 45.9502 38.0652 45.6324C38.4744 45.3347 38.8784 45.0279 39.2595 44.7449C39.2473 44.6335 39.256 44.5823 39.235 44.5476C38.4744 43.2693 37.7192 41.9872 36.9446 40.7198C36.4897 39.9765 36.149 38.9703 35.4886 38.6069C34.8177 38.238 33.8165 38.4808 32.9629 38.5247C32.7135 38.5375 32.3851 38.7256 32.2499 38.9411C31.4718 40.1793 30.7991 41.4941 29.9754 42.6958C29.2535 43.7496 28.9356 44.7923 29.3431 46.0525C29.4871 46.4999 29.4923 46.993 29.5767 47.4623C29.6733 48.0047 29.5556 48.4704 29.1024 48.7809C28.6475 49.0932 28.1891 49.0219 27.7518 48.7078C27.455 48.4941 27.1529 48.2841 26.8297 48.054C26.3151 48.9197 25.8391 49.7086 25.3754 50.5085C24.9943 51.1678 24.3251 51.8471 24.3444 52.4991C24.3637 53.1584 25.047 53.8158 25.4913 54.4349C25.6318 54.6303 25.9339 54.8057 26.164 54.8075C28.5123 54.8349 30.8623 54.833 33.2106 54.8093C33.46 54.8075 33.7586 54.6723 33.9483 54.497C34.5033 53.9802 34.9705 53.3538 35.5606 52.8917C35.861 52.6562 36.4142 52.5082 36.7356 52.6379C37.0588 52.7676 37.3135 53.2588 37.4557 53.6478C37.5717 53.9656 37.4786 54.3655 37.4786 54.8257L37.4768 54.8221ZM23.5418 42.6721C24.088 43.4154 23.8737 44.0436 23.4539 44.7047C21.9224 47.1172 20.4295 49.5552 18.9032 51.9713C18.6748 52.3311 18.6731 52.5758 18.919 52.9283C20.3381 54.9518 21.738 56.9898 23.1255 59.0371C23.3538 59.3749 23.6015 59.4973 23.9931 59.49C25.2208 59.4662 26.4503 59.4808 27.678 59.4808H31.3488C30.5708 58.6718 30.6129 57.9249 31.3646 57.1506C29.2904 57.1506 27.3812 57.1286 25.4738 57.1615C24.7782 57.1743 24.3198 56.9077 23.958 56.305C23.3661 55.3207 22.7461 54.3546 22.1015 53.4067C21.6747 52.7822 21.6905 52.227 22.0822 51.586C23.1624 49.82 24.218 48.0358 25.256 46.2424C25.6283 45.5977 26.0323 45.0772 26.9316 45.2434C26.7612 44.1824 26.6049 43.209 26.4398 42.1753C25.4527 42.3434 24.5306 42.5004 23.5418 42.6702V42.6721ZM26.5329 39.7428C27.8308 39.6204 28.01 39.7044 28.5597 40.6614C29.2728 39.4634 29.9982 38.3 30.6656 37.102C31.0362 36.4354 31.5157 36.1305 32.2621 36.1542C33.4459 36.1926 34.6315 36.1907 35.8135 36.1542C36.553 36.1305 37.036 36.4135 37.4224 37.0783C38.7151 39.2953 40.0464 41.4905 41.3795 43.682C41.8221 44.4088 42.291 45.1083 41.5376 45.9849C42.5633 46.162 43.4643 46.3154 44.4215 46.4816C44.5901 45.4352 44.75 44.4399 44.9239 43.3606C44.0984 43.503 43.7067 43.0118 43.3449 42.4274C41.6763 39.7282 40.0025 37.0326 38.3041 34.3535C38.1513 34.1125 37.8193 33.8513 37.5646 33.8477C35.262 33.8093 32.9594 33.8203 30.6568 33.8349C30.4654 33.8349 30.1879 33.9189 30.0965 34.065C28.911 35.9186 27.7518 37.7887 26.5311 39.7428H26.5329ZM44.5691 48.9799C45.1223 49.904 45.6369 50.7916 46.1797 51.659C46.5485 52.2489 46.538 52.7822 46.1498 53.3629C45.4877 54.3527 44.8466 55.359 44.2213 56.3744C43.8823 56.9259 43.445 57.1706 42.8039 57.1615C40.8297 57.1341 38.8556 57.1378 36.8832 57.1597C36.2421 57.167 35.6607 57.1012 35.3305 56.5315C34.707 57.1414 34.1063 57.7277 33.5338 58.2883C34.1204 58.9147 34.6965 59.5283 35.313 60.1876C35.673 59.5265 36.2667 59.4754 36.906 59.479C39.3403 59.4918 41.7747 59.4735 44.209 59.4955C44.6323 59.4991 44.8835 59.3603 45.1241 59.0042C46.3694 57.1597 47.6375 55.3334 48.8985 53.4999C49.3751 52.8071 49.3862 52.0973 48.9319 51.3705C48.1591 50.1359 47.3863 48.9032 46.5836 47.6212C46.2007 48.8539 46.1147 48.9124 44.5691 48.9836V48.9799Z" fill="#22B573"/>
  </g>
  <defs>
    <clipPath id="clip0_0_73">
      <rect width="67.4448" height="70" fill="white" transform="translate(0.389221)"/>
    </clipPath>
  </defs>
</svg>