<svg xmlns="http://www.w3.org/2000/svg" width="58" height="70" viewBox="0 0 58 70" fill="none">
  <g clip-path="url(#clip0_0_54)">
    <path d="M29.8727 0C30.5213 0.0847823 31.1718 0.160144 31.8169 0.258115C39.9508 1.50159 46.0137 5.92722 50.0833 13.2901C51.9062 16.5891 52.8412 20.2027 53.0441 24.0216C53.3703 30.1994 51.7594 35.7649 48.2605 40.7501C47.8872 41.2833 47.485 41.8014 47.0501 42.28C46.724 42.6398 46.7294 42.9149 46.9649 43.3369C50.2428 49.2039 53.5007 55.0821 56.7659 60.9566C57.025 61.4219 57.2551 61.8515 56.9181 62.4073C56.4107 63.2494 55.9559 63.4567 55.0554 63.0893C52.9771 62.2415 50.9078 61.3767 48.8331 60.5195C48.2859 60.2934 47.7369 60.0692 47.0882 59.8035C46.965 60.625 46.8381 61.3974 46.733 62.1718C46.4503 64.2235 46.1767 66.2752 45.8977 68.327C45.8633 68.5757 45.8307 68.8262 45.7636 69.0655C45.4991 70.0207 44.4065 70.2996 43.7415 69.5723C43.5494 69.3613 43.4081 69.0957 43.2649 68.8413C39.9943 62.9706 36.7237 57.0999 33.4694 51.2179C33.232 50.7883 33.0255 50.6112 32.5109 50.7092C29.7911 51.2179 27.0623 51.1972 24.3425 50.6998C23.8732 50.6131 23.692 50.7865 23.4818 51.1651C20.2257 57.0453 16.9551 62.916 13.69 68.7904C13.3312 69.4348 12.9815 70.1225 12.119 69.9849C11.1949 69.838 11.1315 69.0429 11.0282 68.2761C10.6495 65.482 10.2509 62.6918 9.85042 59.8186C9.575 59.9222 9.33582 60.0051 9.10208 60.1012C6.76464 61.0696 4.42901 62.0418 2.08976 63.0083C1.88682 63.0912 1.67845 63.1684 1.46645 63.2155C0.524225 63.4265 -0.196938 62.6447 0.0712333 61.6857C0.154584 61.3842 0.310413 61.0997 0.462618 60.8266C3.66799 55.0482 6.86792 49.266 10.1023 43.5046C10.4284 42.9224 10.3541 42.589 9.95914 42.1029C5.3205 36.4093 3.32734 29.8038 4.26594 22.4334C5.48539 12.8398 10.568 6.08171 18.9882 2.0555C21.4271 0.889272 24.0399 0.273187 26.7343 0.105507C26.9047 0.0942025 27.0732 0.035797 27.2417 0C28.1187 0 28.9957 0 29.8727 0ZM50.6432 25.4271C50.5979 12.7644 40.8115 2.55289 28.5952 2.5284C16.3916 2.5039 6.50915 12.8963 6.52909 25.5779C6.54902 38.3932 16.3119 48.4728 28.5898 48.5124C40.7046 48.552 50.6904 38.0371 50.6451 25.4271H50.6432ZM52.9608 59.3871C52.9916 59.3476 53.0242 59.308 53.055 59.2684C50.3388 54.385 47.6227 49.5015 44.9519 44.6972C43.4479 45.7466 42.069 46.845 40.5687 47.7192C39.0539 48.601 37.4195 49.2585 35.7924 50.0366C38.4813 54.9106 41.2011 59.8355 43.919 64.7605C44.3684 62.5109 44.6873 60.3292 45.0008 58.1474C45.1802 56.9002 45.8687 56.4801 47.0048 56.9454C48.6338 57.6105 50.2591 58.2831 51.8863 58.9519C52.2432 59.0989 52.602 59.2421 52.9589 59.3871H52.9608ZM12.2005 44.701C9.52608 49.511 6.80813 54.3963 4.00501 59.4324C4.37828 59.2986 4.58303 59.2364 4.78054 59.1554C6.59069 58.4112 8.39541 57.6576 10.2074 56.919C11.2257 56.5045 11.9505 56.9228 12.1226 58.0306C12.3527 59.5134 12.5593 60.9999 12.7786 62.4826C12.8891 63.2268 13.0051 63.9692 13.1174 64.7134C13.1645 64.7152 13.2116 64.7171 13.2587 64.719C15.9712 59.8016 18.6819 54.8843 21.3564 50.0347C19.7075 49.2472 18.0912 48.5972 16.5946 47.7249C15.0943 46.8507 13.7135 45.7542 12.2005 44.701Z" fill="#D2B48C"/>
    <path d="M28.5952 45.4018C18.017 45.4244 9.44637 36.5091 9.46449 25.5044C9.48261 14.5072 17.9807 5.65968 28.5572 5.62765C39.1047 5.59562 47.7477 14.5844 47.6988 25.5345C47.6499 36.56 39.1681 45.3811 28.5934 45.4018H28.5952ZM11.8635 25.5364C11.878 35.0716 19.3796 42.8697 28.5699 42.8998C37.829 42.93 45.2853 35.1394 45.2726 25.4422C45.2617 15.8863 37.7656 8.09199 28.5789 8.08257C19.4502 8.07503 11.849 16.0106 11.8617 25.5364H11.8635Z" fill="#D2B48C"/>
    <path d="M22.5396 22.4146C23.3496 22.4146 24.1613 22.4165 24.9713 22.4146C26.0222 22.4108 26.3575 22.1583 26.6872 21.1052C27.1801 19.5263 27.6566 17.9418 28.1676 16.3705C28.2618 16.0804 28.4829 15.8355 28.646 15.5698C28.7964 15.8279 28.9993 16.0672 29.0899 16.3461C29.5918 17.8985 30.0647 19.4585 30.5503 21.0166C30.9073 22.1621 31.2443 22.4165 32.413 22.4165C34.0565 22.4165 35.7 22.407 37.3416 22.4278C37.5699 22.4315 37.7946 22.5917 38.0211 22.6802C37.8743 22.8611 37.7565 23.0815 37.579 23.2191C36.2055 24.276 34.8212 25.3141 33.4422 26.3635C32.5852 27.0154 32.4747 27.3696 32.7954 28.4002C33.281 29.9564 33.7829 31.5089 34.2486 33.0726C34.341 33.3816 34.2921 33.7358 34.3084 34.0693C34.004 33.9374 33.6633 33.8602 33.4006 33.6661C32.096 32.7053 30.8149 31.7105 29.523 30.7327C28.6732 30.0883 28.2491 30.0883 27.3939 30.7345C26.0295 31.7651 24.6759 32.8108 23.3043 33.83C23.1177 33.9695 22.8422 33.9789 22.6067 34.0505C22.6012 33.798 22.5324 33.5248 22.6012 33.295C23.0941 31.6445 23.6178 30.0054 24.1269 28.3606C24.4549 27.3037 24.3824 27.0757 23.5217 26.3862C22.237 25.3593 20.9451 24.342 19.6695 23.302C19.4829 23.1494 19.3759 22.895 19.231 22.6878C19.4792 22.5973 19.7257 22.4391 19.9775 22.4297C20.831 22.3976 21.6862 22.4165 22.5396 22.4165V22.4146Z" fill="#2BAE7A"/>
  </g>
  <defs>
    <clipPath id="clip0_0_54">
      <rect width="57.0697" height="70" fill="white" transform="translate(0.0150757)"/>
    </clipPath>
  </defs>
</svg>